<svg width="62" height="25" fill="#fff" xmlns="http://www.w3.org/2000/svg"><path d="M33.84 15.72h-6.48L25.76 25h-7.6l4.4-25h15.6l-2.12 6.4H29l-.56 3.36h6.48l-1.08 5.96zm-16.88 9.16L0 23.08h17.28l-.32 1.8zm1.36-7.72l-16.96-1.8h17.28l-.32 1.8zm.68-3.84l-16.96-1.8h17.28l-.32 1.8zm.68-3.84L2.72 7.68H20l-.32 1.8zm.68-3.84L3.4 3.84h17.24l-.28 1.8zM17.64 21L.68 19.2h17.28l-.32 1.8zM21 1.8L4.08 0h17.24L21 1.8zM56.8 25h-8l2.96-17h-6.68l1-5.92L55.16 0h6L56.8 25zm-9.24-.12l-16.96-1.8h17.28l-.32 1.8zm1.36-7.72l-16.96-1.8h17.28l-.32 1.8zm.68-3.84l-16.96-1.8h17.28l-.32 1.8zm-6-3.84l-16.96-1.8h17.28l-.32 1.8zm.64-3.84l-16.96-1.8h17.24l-.28 1.8zm4 15.36l-16.96-1.8h17.28l-.32 1.8zM44.92 1.44L32.44 0h17.28L45 1.08l-.08.36z"/></svg>