<svg xmlns="http://www.w3.org/2000/svg" version="1.0" width="128" height="128"><g><path d="M80.53 2.18a2 2 0 011.42 2.45L74.7 31.67a2 2 0 01-3.86-1.03L78.08 3.6a2 2 0 012.45-1.42zM95.967 8.565a2 2 0 01.737 2.734L82.703 35.54a2 2 0 01-3.462-1.994L93.233 9.302a2 2 0 012.734-.737zM109.225 18.727a2 2 0 01.005 2.832L89.431 41.351a2 2 0 01-2.827-2.822l19.79-19.797a2 2 0 012.831-.005zM119.402 31.975a2 2 0 01-.729 2.737L94.427 48.705a2 2 0 01-2.001-3.457l24.24-14.001a2 2 0 012.736.728zM125.803 47.405a2 2 0 01-1.412 2.455l-27.042 7.241a2 2 0 01-1.038-3.857l27.037-7.25a2 2 0 012.455 1.411zM127.992 63.967a2 2 0 01-2 2.005l-27.994-.004a2 2 0 01-.004-3.995l27.992-.005a2 2 0 012.006 1.999zM125.82 80.53a2 2 0 01-2.45 1.42L96.33 74.7a2 2 0 011.03-3.86l27.04 7.24a2 2 0 011.42 2.45zM119.435 95.967a2 2 0 01-2.734.737L92.46 82.703a2 2 0 011.994-3.462l24.245 13.992a2 2 0 01.737 2.734zM109.273 109.225a2 2 0 01-2.832.005L86.649 89.431a2 2 0 012.822-2.827l19.797 19.79a2 2 0 01.005 2.831zM96.025 119.402a2 2 0 01-2.737-.729L79.295 94.427a2 2 0 013.457-2.001l14.001 24.24a2 2 0 01-.728 2.736zM80.595 125.803a2 2 0 01-2.455-1.412l-7.241-27.042a2 2 0 013.857-1.038l7.25 27.037a2 2 0 01-1.411 2.455zM64.033 127.992a2 2 0 01-2.005-2l.004-27.994a2 2 0 013.995-.004l.005 27.992a2 2 0 01-1.999 2.006zM47.47 125.82a2 2 0 01-1.42-2.45l7.25-27.04a2 2 0 013.86 1.03l-7.24 27.04a2 2 0 01-2.45 1.42zM32.033 119.435a2 2 0 01-.737-2.734L45.297 92.46a2 2 0 013.462 1.994l-13.992 24.245a2 2 0 01-2.734.737zM18.775 109.273a2 2 0 01-.005-2.832l19.799-19.792a2 2 0 012.827 2.822l-19.79 19.797a2 2 0 01-2.831.005z" fill="#fce6e5"/><path d="M8.598 96.025a2 2 0 01.729-2.737l24.246-13.993a2 2 0 012.001 3.457l-24.24 14.001a2 2 0 01-2.736-.728z" fill="#f9cdcc"/><path d="M2.197 80.595A2 2 0 013.61 78.14l27.042-7.241a2 2 0 011.038 3.857l-27.037 7.25a2 2 0 01-2.455-1.411z" fill="#f6b4b2"/><path d="M.008 64.033a2 2 0 012-2.005l27.994.004a2 2 0 01.004 3.995l-27.992.005a2 2 0 01-2.006-1.999z" fill="#f39b99"/><path d="M2.18 47.47a2 2 0 012.45-1.42l27.04 7.25a2 2 0 01-1.03 3.86L3.6 49.92a2 2 0 01-1.42-2.45z" fill="#f0827f"/><path d="M8.565 32.033a2 2 0 012.734-.737L35.54 45.297a2 2 0 01-1.994 3.462L9.302 34.767a2 2 0 01-.737-2.734z" fill="#ed6a66"/><path d="M18.727 18.775a2 2 0 012.832-.005l19.792 19.799a2 2 0 01-2.822 2.827l-19.797-19.79a2 2 0 01-.005-2.831z" fill="#ea504c"/><path d="M31.975 8.598a2 2 0 012.737.729l13.993 24.246a2 2 0 01-3.457 2.001l-14.001-24.24a2 2 0 01.728-2.736z" fill="#e73833"/><path d="M47.405 2.197A2 2 0 0149.86 3.61l7.241 27.042a2 2 0 01-3.857 1.038l-7.25-27.037a2 2 0 011.411-2.455z" fill="#e41e19"/><path d="M64 0a2 2 0 012 2v60a2 2 0 01-4 0V2a2 2 0 012-2z" fill="#e10600"/><animateTransform attributeName="transform" type="rotate" values="0 64 64;15 64 64;30 64 64;45 64 64;60 64 64;75 64 64;90 64 64;105 64 64;120 64 64;135 64 64;150 64 64;165 64 64;180 64 64;195 64 64;210 64 64;225 64 64;240 64 64;255 64 64;270 64 64;285 64 64;300 64 64;315 64 64;330 64 64;345 64 64" calcMode="discrete" dur="1920ms" repeatCount="indefinite"/></g></svg>